inDegrees=no
num_controls=7
num_derivatives=13
num_iterations=109
num_multipliers=7
num_parameters=0
num_slacks=7
num_states=26
objective=5.239873
objective_accelerations=0.475236
objective_balance=0.094276
objective_effort=0.382074
objective_height=4.247176
objective_ligament=0.041111
solver_duration=1225.467795
status=Solve_Succeeded
success=true
DataType=double
version=3
OpenSimVersion=4.4-2022-07-23-0e9fedc
endheader
time	/jointset/ground_pelvis/pelvis_tilt/value	/jointset/ground_pelvis/pelvis_tx/value	/jointset/ground_pelvis/pelvis_ty/value	/jointset/hip_l/hip_flexion_l/value	/jointset/hip_l/hip_adduction_l/value	/jointset/hip_l/hip_rotation_l/value	/jointset/back/lumbar_extension/value	/jointset/patellofemoral_l/patellar_flexion_l/value	/jointset/knee_l/knee_flexion_l/value	/jointset/knee_l/knee_adduction_l/value	/jointset/knee_l/knee_rotation_l/value	/jointset/ankle_l/ankle_angle_l/value	/jointset/subtalar_l/subtalar_angle_l/value	/jointset/ground_pelvis/pelvis_tilt/speed	/jointset/ground_pelvis/pelvis_tx/speed	/jointset/ground_pelvis/pelvis_ty/speed	/jointset/hip_l/hip_flexion_l/speed	/jointset/hip_l/hip_adduction_l/speed	/jointset/hip_l/hip_rotation_l/speed	/jointset/back/lumbar_extension/speed	/jointset/patellofemoral_l/patellar_flexion_l/speed	/jointset/knee_l/knee_flexion_l/speed	/jointset/knee_l/knee_adduction_l/speed	/jointset/knee_l/knee_rotation_l/speed	/jointset/ankle_l/ankle_angle_l/speed	/jointset/subtalar_l/subtalar_angle_l/speed	/forceset/tau_hip_flexion_l	/forceset/tau_hip_adduction_l	/forceset/tau_hip_rotation_l	/forceset/tau_knee_flexion_l	/forceset/tau_ankle_angle_l	/forceset/tau_subtalar_angle_l	/forceset/tau_lumbar_extension	lambda_cid13_p0	lambda_cid13_p1	lambda_cid13_p2	lambda_cid13_p3	lambda_cid13_p4	lambda_cid13_p5	lambda_cid14_p0	/jointset/ground_pelvis/pelvis_tilt/accel	/jointset/ground_pelvis/pelvis_tx/accel	/jointset/ground_pelvis/pelvis_ty/accel	/jointset/hip_l/hip_flexion_l/accel	/jointset/hip_l/hip_adduction_l/accel	/jointset/hip_l/hip_rotation_l/accel	/jointset/back/lumbar_extension/accel	/jointset/patellofemoral_l/patellar_flexion_l/accel	/jointset/knee_l/knee_flexion_l/accel	/jointset/knee_l/knee_adduction_l/accel	/jointset/knee_l/knee_rotation_l/accel	/jointset/ankle_l/ankle_angle_l/accel	/jointset/subtalar_l/subtalar_angle_l/accel	gamma_cid13_p0	gamma_cid13_p1	gamma_cid13_p2	gamma_cid13_p3	gamma_cid13_p4	gamma_cid13_p5	gamma_cid14_p0
1	-0.5898460153408315	-0.09567458031692827	0.6546848520300227	1.725467660583155	-0.3020118056330898	0.09279527472994382	-0.4363209718443648	1.074684654939924	1.074684654940465	-0.1744135048104774	0.1744810157314454	0.1299633442690812	-0.02651963252221716	-0.01018391446426387	0.0009142366910477895	-0.003063053252849941	0.01592655243536642	0.0005626278476011447	0.003384213236848867	0.0005295962213424914	0.009016775779540522	0.009016775779550202	-1.621470727736018e-05	-1.657000314905773e-05	0.003975998027948804	0.001347620018158757	-0.3965733952516343	0.02467681161784104	-0.02036989450011074	-0.2356882684123004	0.08749093666377544	0.03821014704412227	0.3285200928165749	-16.55194205613252	-14.39240596418632	2.686968492909404	8.694823982143197	-710.3063567560827	-46.76278798742772	-4.987038968472741	1.718302959675516	0.2469493062164979	1.380545678509877	-5.437735976154552	-0.2404428844704134	-1.513412302865118	-0.004480791899940037	-4.225945983970587	-4.225945983970878	-0.03552527680377072	0.006827069326294823	-0.7720811730969329	-0.3769069218359231	2.882686567658131e-09	3.173962947597091e-09	-2.707571664724086e-09	-5.278688291667001e-09	4.263948515112312e-09	9.182264757328417e-10	5.113761681912141e-10
1.01	-0.5898622627918145	-0.09565318370260731	0.6547230895794086	1.725355886756875	-0.3020174866173437	0.09275291717523841	-0.4363159588889574	1.074564058307143	1.074564058307926	-0.1744137534667845	0.1744807162573739	0.1299646950140291	-0.02652416511729881	0.006964525141192495	0.003361062030654398	0.01070420576696326	-0.03828348704906764	-0.0016961867692767	-0.01185297328800333	0.0003961033576518574	-0.03310998043117507	-0.03310998043117305	-2.774966861585394e-05	-3.956538022216466e-05	-0.00370687606601086	-0.002251617569982004	-0.3959774021651345	0.02465042423782262	-0.02037322804386906	-0.2356502541133564	0.08748085087219573	0.03820987664017438	0.3279869457646948	-16.52331172723443	-14.39896110314178	2.689909265531267	8.735332032293249	-709.748943342369	-46.78397636674038	-4.992830339076336	1.717629153546067	0.2429447260861691	1.373862215311255	-5.412963779735949	-0.218206560832053	-1.528461943454795	-0.02931724190625184	-4.202121482517819	-4.202121482518576	0.01689631633294521	-0.006302229529785366	-0.7665441290458049	-0.3510548469309941	7.336006296971127e-11	-5.331135572392682e-09	1.422364122187899e-08	-4.013979237331042e-09	-9.170892409804031e-10	7.888095980792798e-09	-3.318446268356239e-09
1.02	-0.5897061229082592	-0.09560743971923956	0.654898808959314	1.724701947366701	-0.3020456769098817	0.09255826973205493	-0.4363145876046136	1.074022977903677	1.074022977904711	-0.1744139446882552	0.1744802989518538	0.1298891862977347	-0.02656461462218785	0.02429355244937028	0.005783710500406353	0.02443331285077553	-0.09250656033934543	-0.003939233807560634	-0.02707376445922685	-0.000198737838065231	-0.07507997835768368	-0.07507997835768697	-4.72774468505099e-06	-4.013628952154492e-05	-0.01139589421999444	-0.0058357619432318	-0.395381409078634	0.02462403685778089	-0.02037656158779617	-0.2356122398144071	0.08747076508060238	0.03820960623619712	0.3274537987128082	-16.50228631117301	-14.4046672608741	2.693265852099019	8.800528207927663	-709.2914658348102	-46.78359815724505	-5.018823085061582	1.754420500219858	0.2421139322455201	1.372915291309677	-5.440342737323286	-0.2372893687516267	-1.510133232139456	-0.09675045830325171	-4.194594327129193	-4.194594327129014	-0.0286138997498458	0.0113119628810714	-0.7733099851017979	-0.3738882788577422	-5.627658700006452e-09	-1.472117710422953e-08	3.184761742298899e-08	3.357481710216888e-09	-8.835883635594318e-09	1.409011216651656e-08	-7.150554495927894e-09
1.03	-0.5893763313681134	-0.0955374790087888	0.6552116946973634	1.723505788974523	-0.302096199515171	0.0922114549329205	-0.4363196344145965	1.073062508808557	1.073062508808228	-0.1744138091515933	0.174479907717175	0.1297367351188005	-0.02664080362356929	0.04164103126608595	0.008215556242833323	0.0381441946513268	-0.1467202580104474	-0.006161112183469221	-0.04229253983378759	-0.0007041347099947478	-0.1170351831112259	-0.1170351831112252	3.084896999531305e-05	-4.079749579634037e-05	-0.01909768023096409	-0.009397350170855969	-0.3960236134184948	0.02484077001067682	-0.0203669940862155	-0.2351332581117696	0.08699259889848729	0.03837730666577166	0.3281009451428836	-16.67237843365108	-14.45477344830211	2.709313563259569	8.809841232493525	-709.6871736382333	-46.81977551047139	-5.065150739719266	1.721352171376352	0.2447907964350029	1.37022520353017	-5.411155439404977	-0.2140155585531323	-1.528261534228608	-0.01146088291696962	-4.199182696542046	-4.199182696541477	0.0194910045418112	-0.006169725234555095	-0.7691141454988535	-0.3465927981448335	-1.135818452684271e-08	-2.412024866679951e-08	4.947866263751234e-08	1.079125645259355e-08	-1.678261432243805e-08	2.028429311428791e-08	-1.098268604789775e-08
